# xmcd
#
# Track frame offsets: 
#        151
#        11127
#        22589
#        31161
#        43107
#        54080
#        64323
#        75677
#        83687
#        94454
#        105260
#        118632
#        128861
#        138292
#        153034
#        165642
#        177494
#        187949
#        196434
#        206367
#        216494
#        225334
#        235143
#        242814
#        254763
#        267619
#        278964
#        289567
#
# Disc length: 4021 seconds
#
# Revision: 2
# Processed by: cddbd v1.5.2PL0 Copyright (c) Steve Scherf et al.
# Submitted via: ExactAudioCopy v0.90b4
#
DISCID=810fb31c
DTITLE=Various Artist - Wild Fast And Movin'
DYEAR=1997
DGENRE=Swing
TTITLE0=Roddy Jackson - I've Got My Sights On Someone New
TTITLE1=The Cavaliers - Dance Dance Dance
TTITLE2=Bobby Darin - All The Way Home
TTITLE3=The Elliott Brothers - Billy Boy Bop
TTITLE4=Joe Maxon - Sometimes I Feel
TTITLE5=The Paragons - Hey Little Schoolgirl
TTITLE6=Big Moe - Mumbles Blues
TTITLE7=Bobby Darin - Mighty Mighty Man
TTITLE8=Lloyd Price - Ain't That Just Like A Woman
TTITLE9=Jimmy Witherspoon - All Right Miss Moore
TTITLE10=Rusty Bryant - Merry Go Round
TTITLE11=The Treniers - Rock A Way
TTITLE12=The Flamingos - Hey Now
TTITLE13=The Cadets - Do You Wanna Rock
TTITLE14=Jimmy Bowen - You're Just Waisting Your Time
TTITLE15=Fay Simmons - Hangin' Round
TTITLE16=The Cadets - Let's Rock'n Roll
TTITLE17=The Flamingos - Let's Make Up
TTITLE18=Jesse Belvin - Satellite
TTITLE19=Jack Hammer - Football Rock
TTITLE20=Grady Chapman - Let's Talk About Us
TTITLE21=Dean Webb - Hey Miss Fannie
TTITLE22=Jimmy Cavello - Let'em Roll
TTITLE23=B. B. King - Bim Bam
TTITLE24=The Four Tunes - Rock'n Roll Call
TTITLE25=The Cadillacs - Romeo
TTITLE26=Roy Brown - Saturday Night
TTITLE27=Ruth Brown - Hello Little Boy
EXTD=Boogie Trainings und Turniermusik 45 bis 69 Takte
EXTT0=
EXTT1=
EXTT2=
EXTT3=
EXTT4=
EXTT5=
EXTT6=
EXTT7=
EXTT8=
EXTT9=
EXTT10=
EXTT11=
EXTT12=
EXTT13=
EXTT14=
EXTT15=
EXTT16=
EXTT17=
EXTT18=
EXTT19=
EXTT20=
EXTT21=
EXTT22=
EXTT23=
EXTT24=
EXTT25=
EXTT26=
EXTT27=
PLAYORDER=
